HIERARCHY
ROOT Hips
{
	OFFSET 0.000000 0.000000 0.000000
	CHANNELS 6 Xposition Yposition Zposition Xrotation Yrotation Zrotation
	JOINT LeftUpLeg_virtual
	{
		OFFSET 0.000000 0.000000 0.000000
		CHANNELS 3 Xrotation Yrotation Zrotation
		JOINT LeftUpLeg
		{
			OFFSET 15.427100 -6.655098 0.678600
			CHANNELS 3 Xrotation Yrotation Zrotation
			JOINT LeftLeg
			{
				OFFSET 4.081073 -39.591068 13.024000
				CHANNELS 3 Xrotation Yrotation Zrotation
				JOINT LeftFoot
				{
					OFFSET -4.081074 -37.707932 -15.979700
					CHANNELS 3 Xrotation Yrotation Zrotation
					JOINT LeftToeBase
					{
						OFFSET 5.346399 -15.068900 20.645000
						CHANNELS 3 Xrotation Yrotation Zrotation
						JOINT LeftToe_End
						{
							OFFSET 2.754700 0.931300 11.300900
							CHANNELS 3 Xrotation Yrotation Zrotation
							End Site
							{
								OFFSET 0 0 0
							}
						}
					}
				}
			}
		}
	}
	JOINT RightUpLeg_virtual
	{
		OFFSET 0.000000 0.000000 0.000000
		CHANNELS 3 Xrotation Yrotation Zrotation
		JOINT RightUpLeg
		{
			OFFSET -15.569500 -6.655098 0.678600
			CHANNELS 3 Xrotation Yrotation Zrotation
			JOINT RightLeg
			{
				OFFSET -4.081825 -39.591045 13.023800
				CHANNELS 3 Xrotation Yrotation Zrotation
				JOINT RightFoot
				{
					OFFSET 4.081824 -37.707954 -15.979600
					CHANNELS 3 Xrotation Yrotation Zrotation
					JOINT RightToeBase
					{
						OFFSET -5.346400 -15.068900 20.645000
						CHANNELS 3 Xrotation Yrotation Zrotation
						JOINT RightToe_End
						{
							OFFSET -2.754700 0.931300 11.300900
							CHANNELS 3 Xrotation Yrotation Zrotation
							End Site
							{
								OFFSET 0 0 0
							}
						}
					}
				}
			}
		}
	}
	JOINT Spine_virtual
	{
		OFFSET 0.000000 0.000000 0.000000
		CHANNELS 3 Xrotation Yrotation Zrotation
		JOINT Spine
		{
			OFFSET -0.279200 12.230698 -2.892100
			CHANNELS 3 Xrotation Yrotation Zrotation
			JOINT Spine1
			{
				OFFSET -0.232667 10.192268 -1.242267
				CHANNELS 3 Xrotation Yrotation Zrotation
				JOINT Spine1_split
				{
					OFFSET -0.232667 10.192268 -1.242267
					CHANNELS 3 Xrotation Yrotation Zrotation
					JOINT Spine2
					{
						OFFSET -0.232667 10.192268 -1.242267
						CHANNELS 3 Xrotation Yrotation Zrotation
						JOINT Neck_virtual
						{
							OFFSET 0.000000 0.000000 0.000000
							CHANNELS 3 Xrotation Yrotation Zrotation
							JOINT Neck
							{
								OFFSET -0.418800 17.814194 8.416900
								CHANNELS 3 Xrotation Yrotation Zrotation
								JOINT Head
								{
									OFFSET 0.000000 7.031097 3.806800
									CHANNELS 3 Xrotation Yrotation Zrotation
									JOINT HeadTop_End
									{
										OFFSET 0.000000 24.646606 12.978600
										CHANNELS 3 Xrotation Yrotation Zrotation
										End Site
										{
											OFFSET 0 0 0
										}
									}
								}
							}
						}
						JOINT LeftShoulder_virtual
						{
							OFFSET 0.000000 0.000000 0.000000
							CHANNELS 3 Xrotation Yrotation Zrotation
							JOINT LeftShoulder
							{
								OFFSET 8.476499 7.247704 -3.868750
								CHANNELS 3 Xrotation Yrotation Zrotation
								JOINT LeftShoulder_split
								{
									OFFSET 8.476499 7.247704 -3.868750
									CHANNELS 3 Xrotation Yrotation Zrotation
									JOINT LeftArm
									{
										OFFSET 9.308998 -2.777710 0.208600
										CHANNELS 3 Xrotation Yrotation Zrotation
										JOINT LeftForeArm
										{
											OFFSET 29.972298 0.000000 0.000000
											CHANNELS 3 Xrotation Yrotation Zrotation
											JOINT LeftHand
											{
												OFFSET 26.026505 0.000000 0.000000
												CHANNELS 3 Xrotation Yrotation Zrotation
												End Site
												{
													OFFSET 0 0 0
												}
											}
										}
									}
								}
							}
						}
						JOINT RightShoulder_virtual
						{
							OFFSET 0.000000 0.000000 0.000000
							CHANNELS 3 Xrotation Yrotation Zrotation
							JOINT RightShoulder
							{
								OFFSET -7.570500 7.247704 -3.868750
								CHANNELS 3 Xrotation Yrotation Zrotation
								JOINT RightShoulder_split
								{
									OFFSET -7.570500 7.247704 -3.868750
									CHANNELS 3 Xrotation Yrotation Zrotation
									JOINT RightArm
									{
										OFFSET -9.308998 -2.777710 0.208500
										CHANNELS 3 Xrotation Yrotation Zrotation
										JOINT RightForeArm
										{
											OFFSET -29.972300 0.000000 0.000000
											CHANNELS 3 Xrotation Yrotation Zrotation
											JOINT RightHand
											{
												OFFSET -26.026505 0.000000 0.000000
												CHANNELS 3 Xrotation Yrotation Zrotation
												End Site
												{
													OFFSET 0 0 0
												}
											}
										}
									}
								}
							}
						}
					}
				}
			}
		}
	}
}
MOTION
Frames: 11
Frame Time: 0.03333333
-1.961713 90.621033 -12.106709 0.000000 0.000000 0.000000 -3.395889 -68.288641 -1.336562 -11.855169 27.129044 15.696060 21.534791 -5.662561 -2.570972 -10.087360 1.894389 -10.718385 -0.131173 -0.843885 -0.530908 0.000000 0.000000 0.000000 -2.417411 -65.889503 -1.169922 -9.040709 -13.871063 -12.292017 21.756738 12.484751 -0.535489 -11.976159 -9.097848 15.632706 7.776205 -0.133073 -16.570771 0.000000 0.000000 0.000000 -10.153196 -63.101249 -7.446579 -2.802860 4.006402 3.498136 8.996525 -1.281129 2.550531 0.004248 0.040847 -0.016159 0.000000 0.000000 0.000000 7.793782 1.964168 3.052608 -3.973345 14.979974 -3.477180 -9.021660 -53.272904 -17.180953 0.000000 0.000000 0.000000 7.083569 -0.247278 2.225610 -0.367276 -1.486786 -5.741756 6.178023 -4.407913 0.471377 50.729451 -76.084223 -14.349188 -3.889764 -15.476790 -2.119165 0.000000 0.000000 0.000000 7.717781 0.274706 3.322839 -6.096477 -0.557057 9.383515 5.028182 1.018201 2.308857 11.279807 34.474813 63.151212 -6.268118 22.964450 -3.400436 0.000000 0.000000 0.000000 
-2.015115 90.618111 -12.058834 0.000000 0.000000 0.000000 -3.552925 -68.242906 -1.485888 -11.991460 26.319830 15.769556 21.416316 -5.620733 -2.572644 -9.427496 2.281039 -10.509610 -0.263474 -0.806419 -0.779465 0.000000 0.000000 0.000000 -1.859872 -65.889182 -0.841649 -9.033581 -13.691498 -12.242761 22.020620 12.504035 -0.601304 -11.801410 -9.048512 15.954796 7.373826 -0.090900 -16.575121 0.000000 0.000000 0.000000 -10.096594 -63.307049 -7.449039 -2.655782 3.939092 3.392983 8.650641 -1.235179 2.620135 0.008014 0.007221 0.023137 0.000000 0.000000 0.000000 7.774602 2.080733 3.052314 -4.104225 14.856401 -3.408887 -9.807965 -53.287630 -17.502184 0.000000 0.000000 0.000000 7.070707 -0.181285 2.294429 -0.322385 -1.688541 -5.675750 6.272057 -4.554264 0.137674 52.609880 -76.028939 -12.630925 -4.149777 -15.460145 -2.324988 0.000000 0.000000 0.000000 7.619706 0.348905 3.392994 -6.058932 -0.428305 8.998526 5.493627 1.170359 2.047601 11.161602 34.860316 63.072542 -6.075095 22.935186 -3.518881 0.000000 0.000000 0.000000 
-2.085807 90.717850 -11.913231 0.000000 0.000000 0.000000 -3.335337 -68.201570 -1.320608 -12.147342 25.393445 15.794184 21.382209 -5.583496 -2.607213 -8.732076 2.785368 -10.275114 -0.924383 -0.773515 -1.080746 0.000000 0.000000 0.000000 -1.114127 -65.938769 -0.349899 -8.802747 -13.572762 -11.989474 22.011355 12.369799 -0.778882 -11.718573 -9.132465 16.308557 7.043320 -0.097170 -16.332046 0.000000 0.000000 0.000000 -9.614005 -63.411066 -7.059071 -2.451169 3.831688 3.307857 8.224157 -1.140024 2.596802 0.027519 -0.035349 0.044950 0.000000 0.000000 0.000000 7.712077 2.252948 2.995500 -4.065115 14.815105 -3.241858 -10.373314 -53.115437 -17.265267 0.000000 0.000000 0.000000 7.070084 -0.070676 2.319847 -0.174552 -1.779835 -5.495729 5.917302 -4.334810 -0.577338 57.117245 -75.805428 -8.448001 -4.065604 -15.889493 -2.255377 0.000000 0.000000 0.000000 7.472344 0.443175 3.390447 -5.925356 -0.054288 8.458244 6.031180 1.138874 1.855954 10.965302 34.755821 63.604497 -5.421172 23.418714 -3.987640 0.000000 0.000000 0.000000 
-2.124972 90.851906 -11.696751 0.000000 0.000000 0.000000 -2.700625 -68.157365 -0.786297 -12.484574 24.616765 15.851674 21.589251 -5.570923 -2.701061 -8.046725 3.386562 -10.171473 -1.764827 -0.742509 -1.369981 0.000000 0.000000 0.000000 -0.332658 -66.049801 0.247675 -8.536234 -13.487021 -11.651008 21.807638 12.081303 -1.030511 -11.779736 -9.330615 16.659113 7.015960 -0.167335 -15.894328 0.000000 0.000000 0.000000 -8.668332 -63.508356 -6.268164 -2.194187 3.690512 3.201410 7.738924 -1.027245 2.488378 0.061578 -0.112349 0.030056 0.000000 0.000000 0.000000 7.614636 2.441920 2.899938 -3.865262 14.904943 -3.012316 -10.710310 -52.722230 -16.592700 0.000000 0.000000 0.000000 7.025956 0.066427 2.296698 0.055648 -1.685435 -5.272623 5.183288 -3.899232 -1.388493 63.145338 -75.421804 -2.824561 -3.683097 -16.429791 -1.957022 0.000000 0.000000 0.000000 7.276907 0.530105 3.325587 -5.715707 0.558864 7.856550 6.638901 0.915911 1.915330 10.694729 34.146527 64.567397 -4.391407 24.297052 -4.736691 0.000000 0.000000 0.000000 
-2.053426 90.986435 -11.471146 0.000000 0.000000 0.000000 -1.678504 -68.109991 0.096195 -13.075719 23.994050 16.046568 21.922947 -5.650236 -2.928770 -7.287773 4.003605 -10.420696 -2.541002 -0.727810 -1.470791 0.000000 0.000000 0.000000 0.648379 -66.122611 1.085060 -8.298764 -13.396257 -11.330155 21.461136 11.685753 -1.312521 -12.006271 -9.539217 16.969639 7.112471 -0.228948 -15.403449 0.000000 0.000000 0.000000 -7.334839 -63.555648 -5.150407 -1.867608 3.506006 3.017891 7.209505 -0.915351 2.312857 0.106610 -0.216354 0.008242 0.000000 0.000000 0.000000 7.482180 2.615141 2.790734 -3.644422 15.138530 -2.709700 -11.144254 -52.007068 -15.896664 0.000000 0.000000 0.000000 6.901939 0.208186 2.222682 0.322757 -1.344808 -5.088380 4.234227 -3.613972 -2.167062 69.086598 -74.996249 2.802098 -3.178688 -17.009521 -1.558727 0.000000 0.000000 0.000000 7.025944 0.596482 3.225527 -5.450394 1.395215 7.364089 7.062933 0.683058 2.106978 10.404571 33.036095 65.686790 -3.122987 25.483338 -5.632028 0.000000 0.000000 0.000000 
-1.856515 91.110229 -11.197487 0.000000 0.000000 0.000000 -0.437621 -68.009478 1.159009 -13.672301 23.452071 16.296437 22.230278 -5.757162 -3.344676 -6.479388 4.664347 -10.937882 -3.314832 -0.746785 -1.204801 0.000000 0.000000 0.000000 1.723799 -66.083146 2.015250 -8.178963 -13.308956 -11.092794 21.060709 11.190408 -1.547803 -12.300667 -9.629139 17.128462 7.152465 -0.206062 -14.997830 0.000000 0.000000 0.000000 -5.787635 -63.610972 -3.894501 -1.431800 3.271720 2.744796 6.652073 -0.811869 2.100984 0.135545 -0.314367 -0.004896 0.000000 0.000000 0.000000 7.300233 2.744387 2.690461 -3.579580 15.480147 -2.334088 -12.076564 -50.919542 -15.664344 0.000000 0.000000 0.000000 6.649465 0.345824 2.098781 0.577263 -0.796211 -5.058426 3.487377 -3.746184 -2.670782 72.970565 -74.547758 6.468092 -2.742597 -17.577396 -1.201730 0.000000 0.000000 0.000000 6.699335 0.642247 3.108809 -5.168667 2.399822 7.082454 7.337687 0.545005 2.397663 10.185182 31.424293 66.629185 -1.814467 26.875328 -6.507880 0.000000 0.000000 0.000000 
-1.557616 91.236374 -11.028584 0.000000 0.000000 0.000000 0.810222 -67.904040 2.194966 -14.105761 22.817140 16.578191 22.364251 -5.775467 -3.859063 -5.741643 5.493926 -11.545217 -4.278190 -0.807544 -0.414611 0.000000 0.000000 0.000000 2.781845 -66.044514 2.895502 -8.324422 -13.329140 -10.975204 20.828237 10.598602 -1.649625 -12.521518 -9.554244 17.087458 7.259122 -0.085071 -14.776091 0.000000 0.000000 0.000000 -4.223136 -63.752316 -2.678901 -0.854077 3.000131 2.436541 6.091819 -0.703657 1.888249 0.165457 -0.361798 -0.005801 0.000000 0.000000 0.000000 7.088769 2.813827 2.605209 -3.786357 15.845446 -1.931110 -13.770716 -49.441701 -16.178818 0.000000 0.000000 0.000000 6.272643 0.475988 1.937623 0.806055 -0.052157 -5.223740 3.118618 -4.460394 -2.525232 73.062131 -74.095169 6.557163 -2.460017 -18.350145 -0.952323 0.000000 0.000000 0.000000 6.315249 0.672294 2.981041 -4.916169 3.395711 6.965838 7.586516 0.883154 2.514852 10.088729 29.383972 67.245910 -0.619926 28.614828 -7.233335 0.000000 0.000000 0.000000 
-1.138828 91.332512 -11.017632 0.000000 0.000000 0.000000 1.971962 -67.788302 3.088870 -14.258327 21.947753 16.721949 22.233792 -5.356153 -4.435204 -5.376443 6.649350 -11.733188 -4.956251 -0.903985 0.508321 0.000000 0.000000 0.000000 3.593423 -66.168708 3.542105 -8.918250 -13.533839 -11.015803 21.028404 9.970749 -1.557214 -12.539242 -9.254644 16.902000 7.369028 0.144833 -14.774727 0.000000 0.000000 0.000000 -2.752914 -63.998449 -1.563658 -0.121593 2.710583 2.149555 5.569037 -0.592752 1.686625 0.181216 -0.353662 0.010209 0.000000 0.000000 0.000000 6.878721 2.823581 2.526113 -4.356323 16.184273 -1.544180 -16.324565 -47.533110 -17.547565 0.000000 0.000000 0.000000 5.850778 0.580352 1.749592 1.000699 0.836134 -5.540184 2.940793 -5.461001 -1.900306 68.235366 -73.462933 2.081472 -2.369928 -19.873106 -0.856856 0.000000 0.000000 0.000000 5.911501 0.684704 2.838357 -4.694636 4.199317 6.928992 7.724634 1.459809 2.514285 10.125994 27.161634 67.505389 0.359783 31.041939 -7.696968 0.000000 0.000000 0.000000 
-0.577237 91.286072 -11.113586 0.000000 0.000000 0.000000 2.954838 -67.695535 3.764212 -14.472063 20.824905 16.773143 22.093650 -4.504999 -4.966892 -5.198206 8.052571 -11.722215 -5.369468 -0.984097 1.181269 0.000000 0.000000 0.000000 3.972874 -66.518693 3.861529 -10.078051 -13.903294 -11.220521 21.906380 9.385985 -1.229995 -12.431594 -8.681253 16.581490 7.271066 0.485946 -14.943552 0.000000 0.000000 0.000000 -1.615822 -64.352150 -0.680492 0.763863 2.405621 1.936198 5.184695 -0.512922 1.505492 0.190785 -0.331382 0.024479 0.000000 0.000000 0.000000 6.709304 2.749563 2.451316 -5.240325 16.488280 -1.351119 -19.486991 -45.252312 -19.486905 0.000000 0.000000 0.000000 5.476068 0.621040 1.544008 1.165567 1.768561 -5.967568 2.801140 -6.241570 -1.299825 59.516663 -72.222557 -5.937289 -2.442587 -22.631070 -0.907216 0.000000 0.000000 0.000000 5.566727 0.647830 2.682948 -4.507598 4.656319 6.828638 7.711088 2.030667 2.442250 10.429187 25.096381 67.382692 1.108100 34.590964 -7.886294 0.000000 0.000000 0.000000 
0.095553 90.986641 -11.254009 0.000000 0.000000 0.000000 3.753305 -67.737131 4.275581 -15.254434 19.339976 16.854496 22.424291 -3.423151 -5.320147 -4.627400 9.393778 -11.878799 -6.430006 -1.044147 1.527074 0.000000 0.000000 0.000000 3.978113 -67.035766 3.946029 -11.741231 -14.253220 -11.537644 23.534520 8.907700 -0.725252 -12.466840 -7.859792 16.013015 6.929792 0.908206 -15.194686 0.000000 0.000000 0.000000 -0.881908 -64.758799 -0.056526 1.750512 2.053636 1.851779 5.036590 -0.525056 1.342358 0.190576 -0.297665 0.021326 0.000000 0.000000 0.000000 6.659730 2.562031 2.380448 -6.318941 16.808119 -1.487856 -22.910247 -42.513054 -21.603239 0.000000 0.000000 0.000000 5.275592 0.545990 1.334194 1.295536 2.662907 -6.326730 2.617570 -6.679157 -0.894295 49.752327 -70.001011 -14.683670 -2.682009 -26.924887 -1.087858 0.000000 0.000000 0.000000 5.394547 0.516135 2.513674 -4.355665 4.660600 6.564622 7.583926 2.635905 2.427273 11.148535 23.621128 66.799551 1.735671 39.975410 -7.880230 0.000000 0.000000 0.000000 
0.860178 90.332626 -11.455994 0.000000 0.000000 0.000000 4.272526 -67.878024 4.609197 -16.971082 17.397084 17.070752 23.849796 -2.442694 -5.447719 -2.722063 10.384971 -12.839855 -8.603525 -1.025444 1.449815 0.000000 0.000000 0.000000 3.662682 -67.648598 3.817812 -13.804543 -14.328263 -11.910925 25.967339 8.540546 -0.099904 -12.818105 -6.889191 15.036868 6.481524 1.370688 -15.409668 0.000000 0.000000 0.000000 -0.518269 -65.161705 0.303566 2.787706 1.620258 1.948777 5.203385 -0.685252 1.184775 0.167263 -0.292270 0.014231 0.000000 0.000000 0.000000 6.796235 2.237213 2.313961 -7.518561 17.235089 -1.981720 -26.171977 -39.292968 -23.465337 0.000000 0.000000 0.000000 5.308745 0.331289 1.131874 1.363990 3.348649 -6.412350 2.674658 -6.654863 -0.664047 41.773932 -67.179555 -21.403622 -3.163229 -32.604810 -1.422617 0.000000 0.000000 0.000000 5.479972 0.252104 2.333843 -4.228413 4.231981 6.143779 7.459806 3.142208 2.559807 12.535394 23.032513 65.551094 2.409335 47.624003 -7.865197 0.000000 0.000000 0.000000 
